<svg id="Layer_1" data-name="Layer 1" xmlns="http://www.w3.org/2000/svg" viewBox="0 0 31.11 44.45"><defs><style>.cls-1{fill:#ea4336;}</style></defs><title>pin</title><path class="cls-1" d="M15.56,0h0A15.55,15.55,0,0,0,0,15.56,20.23,20.23,0,0,0,3.13,26.31c2.11,3.42,4.89,6.36,7,9.78a39.09,39.09,0,0,1,2.6,5c.57,1.22,1,3.34,2.8,3.34h0c1.75,0,2.22-2.12,2.77-3.34a43.31,43.31,0,0,1,2.6-5c2.14-3.4,4.92-6.33,7-9.78a20.07,20.07,0,0,0,3.15-10.75A15.54,15.54,0,0,0,15.56,0Zm0,21.67a5.56,5.56,0,1,1,5.55-5.56A5.56,5.56,0,0,1,15.56,21.67Z"/></svg>