<svg id="Layer_1" data-name="Layer 1" xmlns="http://www.w3.org/2000/svg" viewBox="0 0 28.04 40.05"><defs><style>.cls-1{fill:#3c7e40;}.cls-2{fill:#fff;}</style></defs><title>pin</title><path class="cls-1" d="M28,14a18.09,18.09,0,0,1-2.85,9.69c-1.9,3.1-4.4,5.75-6.33,8.81a37.27,37.27,0,0,0-2.34,4.53c-.26.56-.48,1.3-.84,1.92A1.92,1.92,0,0,1,14,40.05c-1.58,0-2-1.9-2.53-3a34.63,34.63,0,0,0-2.34-4.53c-1.92-3.08-4.42-5.73-6.33-8.81A18.24,18.24,0,0,1,0,14a14,14,0,0,1,28,0Z"/><path class="cls-2" d="M15.42,8.86a2,2,0,1,0-2-2A2,2,0,0,0,15.42,8.86Zm-3.68,3.39L9,26.29H11l1.79-8,2.09,2v6h2V18.82l-2.09-2,.6-3a7.32,7.32,0,0,0,5.48,2.49v-2A4.9,4.9,0,0,1,16.62,12l-1-1.6a2.07,2.07,0,0,0-1.69-1c-.3,0-.5.1-.8.1L8,11.65v4.68h2V12.94l1.8-.69"/></svg>