<svg id="Layer_1" data-name="Layer 1" xmlns="http://www.w3.org/2000/svg" viewBox="0 0 28.04 40.05"><defs><style>.cls-1{fill:#ea4336;}.cls-2{fill:#fff;}</style></defs><title>pin</title><path class="cls-1" d="M28,14a18.09,18.09,0,0,1-2.85,9.69c-1.9,3.1-4.4,5.75-6.33,8.81a37.27,37.27,0,0,0-2.34,4.53c-.26.56-.48,1.3-.84,1.92A1.92,1.92,0,0,1,14,40.05c-1.58,0-2-1.9-2.53-3a34.63,34.63,0,0,0-2.34-4.53c-1.92-3.08-4.42-5.73-6.33-8.81A18.24,18.24,0,0,1,0,14a14,14,0,0,1,28,0Z"/><path class="cls-2" d="M12.6,12.53H10.76V6.12H8.93v6.41H7.1V6.12H5.27v6.41A3.65,3.65,0,0,0,8.7,16.16v8.27H11V16.16a3.65,3.65,0,0,0,3.44-3.63V6.12H12.6Zm4.57-2.75v7.33h2.29v7.32h2.29V6.12C19.22,6.12,17.17,8.17,17.17,9.78Z"/></svg>